<svg xmlns="http://www.w3.org/2000/svg" version="1.1" xmlns:xlink="http://www.w3.org/1999/xlink" xmlns:svgjs="http://svgjs.dev/svgjs" width="1000" height="1000" viewBox="0 0 1000 1000"><rect width="1000" height="1000" fill="#000000"></rect><g transform="matrix(0.7,0,0,0.7,149.57575757575756,282.1265587044535)"><svg viewBox="0 0 396 247" data-background-color="#ffffff" preserveAspectRatio="xMidYMid meet" height="623" width="1000" xmlns="http://www.w3.org/2000/svg" xmlns:xlink="http://www.w3.org/1999/xlink"><g id="tight-bounds" transform="matrix(1,0,0,1,0.2400000000000091,-0.09999999999999432)"><svg viewBox="0 0 395.52 247.2" height="247.2" width="395.52"><g><svg></svg></g><g><svg viewBox="0 0 395.52 247.2" height="247.2" width="395.52"><g transform="matrix(1,0,0,1,75.54432000000001,55.715070839776075)"><svg viewBox="0 0 244.43135999999996 135.76985832044784" height="135.76985832044784" width="244.43135999999996"><g><svg viewBox="0 0 244.43135999999996 135.76985832044784" height="135.76985832044784" width="244.43135999999996"><g><svg viewBox="0 0 244.43136 135.76985832044787" height="135.76985832044784" width="244.43135999999996"><g><svg viewBox="0 0 244.43136 135.76985832044787" height="135.76985832044787" width="244.43136"><g id="textblocktransform"><svg viewBox="0 0 244.43136 135.76985832044787" height="135.76985832044787" width="244.43136" id="textblock"><g><svg viewBox="0 0 244.43136 135.76985832044787" height="135.76985832044787" width="244.43136"><g transform="matrix(1,0,0,1,0,0)"><svg width="244.43136" viewBox="-3 -38.689998626708984 74.26000213623047 41.689998626708984" height="135.76985832044787" data-palette-color="#233565"><path d="M4.54-35.69L13.99-17.85 23.51-35.69 28-35.69 16.09-13.84 16.09 0 11.89 0 11.89-13.65 0-35.69 4.54-35.69ZM52.05 0L48.7 0 36.59-31.64 36.4-31.64Q36.74-27.88 36.74-22.71L36.74-22.71 36.74 0 32.91 0 32.91-35.69 39.16-35.69 50.46-6.25 50.66-6.25 62.06-35.69 68.26-35.69 68.26 0 64.11 0 64.11-23Q64.11-26.95 64.45-31.59L64.45-31.59 64.26-31.59 52.05 0Z" opacity="1" transform="matrix(1,0,0,1,0,0)" fill="#ffffff" class="undefined-text-0" data-fill-palette-color="primary" id="text-0"></path></svg></g></svg></g></svg></g></svg></g></svg></g></svg></g></svg></g><g><path d="M0 123.6c0-68.262 55.338-123.6 123.6-123.6 39.343 0 74.393 18.382 97.029 47.026l-4.267 0c-22.062-26.695-55.425-43.707-92.762-43.707-66.429 0-120.281 53.852-120.281 120.281 0 66.429 53.852 120.281 120.281 120.281 37.337 0 70.7-17.012 92.762-43.707h4.267c-22.636 28.644-57.686 47.026-97.029 47.026-68.262 0-123.6-55.338-123.6-123.6z" fill="#ffffff" stroke="transparent" data-fill-palette-color="tertiary"></path></g></svg></g><defs></defs></svg><rect width="395.52" height="247.2" fill="none" stroke="none" visibility="hidden"></rect></g></svg></g></svg>